<?xml version="1.0"?>
<!DOCTYPE svg SYSTEM "svg11.dtd">
<svg xmlns="http://www.w3.org/2000/svg" xmlns:xlink="http://www.w3.org/1999/xlink" id="SVGOBJECTCONTAINER" x="0px" y="0px" width="800px" height="800px" viewBox="0 0 800 800" version="1.1">
		<title>This is pure smiley drawn with vigor</title><defs/><g id="PureSmiley" class="GROUP PureSmiley" transform="translate(0,0) scale(1,1) rotate(0 0,0)" pointer-events="visible"><circle id="SVG_190" class="SVG_SHAPE_OBJECT CIRCLE ROTATE,0" cx="490" cy="219" r="57" transform="translate(0,0) scale(1,1) rotate(0 0,0)" fill="none" stroke="black" stroke-width="3" stroke-dasharray="none" stroke-linejoin="miter" stroke-opacity="1" opacity="1.0"/><path id="SVG_1110" class="SVG_PATH_OBJECT QUADRATIC_BEZIER ROTATE,0" transform="translate(0,0) scale(1,1) rotate(0 0,0)" d="M457,250 Q487,275 521,253 " stroke="black" stroke-width="3" stroke-dasharray="none" stroke-linejoin="miter" stroke-opacity="1" fill="none" visibility="visible" marker-start="" marker-mid="" marker-end="" pointer-events="visible"/><circle id="SVG_134" class="SVG_SHAPE_OBJECT CIRCLE ROTATE,0" cx="462" cy="201" r="6" transform="translate(0,0) scale(1,1) rotate(0 0,0)" fill="none" stroke="black" stroke-width="3" stroke-dasharray="none" stroke-linejoin="miter" stroke-opacity="1" opacity="1.0"/><circle id="SVG_1269" class="SVG_SHAPE_OBJECT CIRCLE ROTATE,0" cx="516" cy="202" r="5" transform="translate(0,0) scale(1,1) rotate(0 0,0)" fill="none" stroke="black" stroke-width="3" stroke-dasharray="none" stroke-linejoin="miter" stroke-opacity="1" opacity="1.0"/><path id="SVG_231" class="SVG_PATH_OBJECT CUBIC_BEZIER ROTATE,0" transform="translate(0,0) scale(1,1) rotate(0 0,0)" d="M479,196 C483,253 495,253 499,196 " stroke="black" stroke-width="3" stroke-dasharray="none" stroke-linejoin="miter" stroke-opacity="1" fill="none" visibility="visible" marker-start="" marker-mid="" marker-end="" pointer-events="visible"/></g></svg>
